<?xml version="1.0" encoding="UTF-8"?>
<!DOCTYPE svg PUBLIC "-//W3C//DTD SVG 1.1//EN" "http://www.w3.org/Graphics/SVG/1.1/DTD/svg11.dtd">
<!-- Creator: CorelDRAW X8 -->
<svg xmlns="http://www.w3.org/2000/svg" xml:space="preserve" width="8.89mm" height="8.89mm" version="1.1" style="shape-rendering:geometricPrecision; text-rendering:geometricPrecision; image-rendering:optimizeQuality; fill-rule:evenodd; clip-rule:evenodd"
viewBox="0 0 889 889"
 xmlns:xlink="http://www.w3.org/1999/xlink">
 <defs>
  <style type="text/css">
   <![CDATA[
    .fil0 {fill:#06AEF2}
    .fil1 {fill:#EC2B94}
   ]]>
  </style>
 </defs>
 <g id="Camada_x0020_1">
  <metadata id="CorelCorpID_0Corel-Layer"/>
  <g id="_1763806384720">
   <path class="fil0" d="M458 105c6,-6 4,-5 7,-9l3 -8c6,-6 11,-16 17,-18 5,-6 8,-13 11,-20 7,-13 8,-6 20,-12 -1,-7 -3,-4 -3,-13 4,-2 6,-3 11,-4 6,-2 7,-1 9,-7 -5,-8 -19,-5 -25,0 -6,6 -16,14 -18,19 -1,3 -4,6 -7,8 -11,10 -8,12 -15,18l-9 6c-3,2 -5,6 -12,16 -3,3 -5,3 -8,7 -3,2 -4,4 -7,7 -17,17 -13,21 -28,32 -10,8 -7,5 -8,20 -2,15 -18,15 -25,6 -3,-4 -4,-5 -7,-8 -6,-6 -11,-8 -17,-14 -11,-11 -12,-24 -18,-39 -12,-26 -10,-33 -27,-62 -4,-6 -22,-30 -26,-33 -8,-6 -15,-8 -23,-3 3,10 9,4 15,16 -3,5 -5,3 -5,9 6,3 13,1 17,7l17 55c4,18 -1,11 7,40 2,7 3,13 4,20 12,57 28,65 -11,130 -3,5 -7,9 -10,14 -3,6 -6,10 -9,16 -19,37 -35,67 -15,110 5,11 12,21 16,33l28 68c5,10 11,21 19,28 4,4 8,7 14,10 9,4 11,4 18,-1 0,-30 -9,-31 -12,-45 -1,-9 4,-16 -2,-24 -4,-6 -12,-6 -16,-13 -4,-7 -4,-53 -14,-73 -4,-6 -11,-9 -13,-16 0,-7 21,-24 26,-28 11,-8 20,-16 30,-26 31,-31 37,-34 31,-72 -5,-25 5,-23 15,-37 14,-21 16,-39 24,-57 3,-7 7,-12 10,-18 3,-6 7,-12 11,-17 4,-6 8,-10 10,-18z"/>
   <path class="fil1" d="M485 70c-6,2 -11,12 -17,18 -5,6 -5,11 -7,16 1,7 7,22 12,40 5,34 27,57 -3,110 -4,6 -7,12 -10,18 -15,22 -30,45 -38,73 -5,20 -6,26 -1,46 4,15 14,32 21,48l12 30c9,20 21,61 37,73 6,4 22,15 29,10 8,-5 -1,-30 -3,-34 -2,-8 -7,-12 -6,-20 6,-40 -23,-4 -23,-59 0,-12 -5,-36 -10,-45 -4,-6 -9,-11 -12,-16 3,-13 24,-27 33,-34l44 -42c23,-26 4,-53 8,-66 2,-4 9,-11 15,-20 5,-7 8,-13 11,-22 11,-24 19,-48 34,-69 2,-4 4,-6 7,-10 12,-18 -1,-8 20,-31 14,-15 17,-24 27,-42 7,0 10,-1 16,-2 0,-9 -1,-6 -3,-13 7,-10 12,-3 21,-13 -5,-7 -13,-8 -20,-6 -6,2 -25,22 -29,28 -4,5 -4,3 -8,7l-33 38c-13,14 -15,12 -27,31 -3,3 -3,4 -6,7l-8 7c-17,15 -4,23 -13,29 -13,9 -26,-11 -28,-13 -11,-10 -18,-10 -26,-30 -3,-7 -5,-15 -8,-21 -2,-6 -7,-14 -8,-21z"/>
   <path class="fil0" d="M227 640l0 48c0,18 12,16 24,16 23,0 5,-59 14,-69 2,-2 37,-6 37,3 0,22 -5,10 -26,16 -7,2 -10,12 1,20 9,7 30,30 38,30 9,0 21,1 21,-13 0,-15 -12,-14 -13,-24 5,-1 9,-6 11,-9 7,-10 9,-44 -29,-44l-45 0c-16,0 -33,11 -33,26z"/>
   <path class="fil0" d="M671 639l0 48c0,22 29,18 33,7 3,-8 2,-41 2,-51 0,-6 -1,-8 3,-10 3,-1 38,-6 38,5l-2 12c-6,1 -51,-1 -19,28l16 13c24,22 36,5 36,2 0,-21 -4,-12 -13,-25 8,-8 16,-11 16,-28 0,-30 -38,-27 -61,-27 -18,0 -49,2 -49,26z"/>
   <path class="fil0" d="M120 623c7,12 13,9 31,9 9,0 33,-1 33,7 0,14 -53,-4 -69,16 -11,12 -10,49 22,49 24,0 37,3 37,-10 0,-13 -30,0 -30,-17 0,-15 1,-15 25,-15 32,0 2,42 29,42 11,0 21,1 21,-19l0 -42c0,-19 -16,-28 -31,-28l-51 0c-10,0 -12,3 -17,8z"/>
   <path class="fil0" d="M454 643l0 48c0,15 28,17 33,4 3,-7 0,-37 1,-49 1,-15 4,-14 23,-14 15,0 11,14 11,37 0,19 -2,33 18,33 24,0 18,-16 18,-55 0,-40 -37,-33 -73,-33 -16,0 -31,9 -31,29z"/>
   <path class="fil0" d="M790 637c0,14 2,23 26,27 11,2 37,0 37,11 0,14 -45,3 -60,10 -5,20 6,16 41,16 25,0 55,-2 55,-28 0,-33 -48,-22 -59,-28 -4,-2 -5,-3 -6,-7 4,-5 7,-5 14,-6 11,-2 53,3 51,-11 -2,-16 -67,-8 -74,-7 -13,2 -25,8 -25,23z"/>
   <path class="fil0" d="M69 631c13,0 12,3 10,23 -3,0 -9,3 -12,3 -4,0 -10,-1 -15,1 -7,2 -7,9 1,11 4,1 8,0 12,-1 3,-1 -2,-2 4,-1 0,0 10,5 21,0l10 -6c6,-7 -1,-3 7,-8 1,-11 2,-14 -1,-24 4,-8 -20,-14 -29,-14 -17,0 -48,-2 -61,4l-9 7c-9,11 -7,26 -7,45 0,17 -2,28 11,33 9,3 24,0 25,-16 0,-13 -1,-31 0,-43 2,-20 19,-8 33,-14z"/>
   <path class="fil0" d="M567 656c0,10 0,16 5,24 16,28 47,24 78,24 7,0 15,-3 15,-11 0,-11 -24,-7 -35,-8 -12,-2 -22,-4 -27,-17 -5,-11 -1,-24 8,-30 10,-8 23,-5 39,-5 18,-1 19,-18 4,-19 -35,-3 -87,-4 -87,42z"/>
   <path class="fil0" d="M354 630l27 -1c-1,11 0,22 0,33 0,26 -3,35 10,38 4,1 8,1 12,-1 9,-3 7,-10 7,-20 0,-9 0,-17 0,-25 0,-7 2,-20 -3,-24 25,-2 33,3 41,-5 -2,-7 -1,-2 -5,-8 -3,-4 -16,-3 -23,-3l-69 1c-6,1 -5,1 -9,4l0 8c4,3 5,6 12,3z"/>
   <path class="fil1" d="M507 92c0,12 0,14 5,25 4,12 6,12 13,12l7 -17 8 0c1,5 4,8 7,12 9,-2 8,-5 12,-11 3,-4 10,-9 10,-14 0,-7 -2,-8 -4,-14 -3,-16 4,-27 -29,-27 -22,0 -29,14 -29,34z"/>
   <path class="fil0" d="M343 91c0,11 2,29 13,35 12,-6 7,-18 15,-18 8,0 4,13 14,13 4,0 17,-17 17,-28l-5 -28c-6,-11 -37,-12 -47,0 -4,5 -7,16 -7,26z"/>
   <path class="fil1" d="M457 62c0,2 1,2 2,3l9 -6c10,-11 10,-12 8,-15 -7,-4 -8,-13 -13,-20 -10,-13 -24,-36 -40,-32 -12,2 4,8 10,18 -4,6 -5,2 -7,8 14,8 15,-4 21,16 3,10 5,20 10,28z"/>
   <path class="fil0" d="M612 655c0,12 -2,13 29,13 35,0 27,-20 9,-20 -8,0 -38,-2 -38,7z"/>
  </g>
 </g>
</svg>
